<svg xmlns="http://www.w3.org/2000/svg" width="512" height="512" viewBox="0 0 444.955 444.955" enable-background="new 0 0 444.955 444.955"><g fill="#fff"><path d="M443.7 9.82c-1.6-3.88-4.7-7-8.57-8.58L429.06 0H301.93c-8.74 0-15.9 7.12-15.9 15.9s7.16 15.88 15.9 15.88h88.77L258.93 163.55c-6.2 6.2-6.2 16.28 0 22.47 6.14 6.2 16.27 6.2 22.47 0L413.17 54.25v88.77c0 8.77 7.15 15.9 15.9 15.9 8.73 0 15.88-7.13 15.88-15.9V15.9L443.7 9.8zM163.55 258.9L31.78 390.7v-88.77c0-8.74-7.12-15.9-15.9-15.9S0 293.2 0 301.94v127.2l1.2 6 3.3 4.96.14.18.13.13 5.02 3.32 6.1 1.24H143c8.77 0 15.9-7.16 15.9-15.9s-7.13-15.9-15.9-15.9H54.25L186.02 281.4c6.2-6.13 6.2-16.27 0-22.47-6.2-6.2-16.27-6.2-22.47-.03z"/></g></svg>