<?xml version="1.0" encoding="utf-8"?>
<!-- Svg Vector Icons : http://www.onlinewebfonts.com/icon -->
<!DOCTYPE svg PUBLIC "-//W3C//DTD SVG 1.1//EN" "http://www.w3.org/Graphics/SVG/1.1/DTD/svg11.dtd">
<svg version="1.1" xmlns="http://www.w3.org/2000/svg" xmlns:xlink="http://www.w3.org/1999/xlink" x="0px" y="0px" viewBox="0 0 1000 1000" enable-background="new 0 0 1000 1000" xml:space="preserve" fill='#fff'>
<metadata> Svg Vector Icons : http://www.onlinewebfonts.com/icon </metadata>
<g><path d="M19,981L19,981c12,12,31.4,12,43.4,0l320.6-320.6v232.7c0,16.9,13.7,30.6,30.6,30.6l0,0c16.9,0,30.6-13.7,30.6-30.6V585.6c0-16.9-13.8-30.6-30.6-30.6l-306.1,0.4c-16.9,0-30.6,13.7-30.6,30.6l0,0c0,16.9,13.7,30.6,30.6,30.6h232.7L19,937.8C7,949.7,7,969.1,19,981z"/><path d="M981,19L981,19c-12-12-31.4-12-43.4,0L617.1,339.6V106.9c0-16.9-13.7-30.6-30.6-30.6l0,0c-16.9,0-30.6,13.7-30.6,30.6v307.5c0,16.9,13.8,30.6,30.6,30.6l306.1-0.4c16.9,0,30.6-13.7,30.6-30.6l0,0c0-16.9-13.7-30.6-30.6-30.6H659.9L981,62.3C993,50.3,993,30.9,981,19z"/></g>
</svg>